<?xml version="1.0" standalone="no"?>
<!DOCTYPE svg PUBLIC "-//W3C//DTD SVG 20010904//EN"
 "http://www.w3.org/TR/2001/REC-SVG-20010904/DTD/svg10.dtd">
<svg version="1.0" xmlns="http://www.w3.org/2000/svg"
 width="1920.000000pt" height="1080.000000pt" viewBox="0 0 1920.000000 1080.000000"
 preserveAspectRatio="xMidYMid meet">

<g transform="translate(0.000000,1080.000000) scale(0.100000,-0.100000)"
fill="#000000" stroke="none">
<path d="M15050 8281 c-8 -5 -40 -12 -70 -16 -159 -21 -318 -71 -478 -151
-246 -123 -443 -319 -554 -554 -69 -145 -98 -252 -118 -436 -24 -221 33 -513
135 -695 19 -33 35 -63 35 -64 0 -18 112 -158 185 -230 104 -104 204 -175 337
-239 204 -98 351 -134 617 -152 174 -12 432 25 586 83 22 9 49 19 60 23 65 23
191 89 265 138 99 66 246 209 313 303 44 64 118 196 130 236 3 10 13 38 22 63
22 59 51 172 60 235 4 28 11 55 17 62 16 20 3 240 -21 348 -26 116 -73 259
-109 330 -98 198 -271 386 -463 503 -157 95 -387 175 -572 197 -31 4 -60 11
-63 16 -7 12 -294 11 -314 0z m323 -587 c180 -40 357 -180 435 -344 64 -136
75 -185 75 -345 0 -159 -11 -209 -71 -338 -76 -162 -238 -298 -417 -348 -67
-19 -314 -19 -375 0 -191 57 -336 176 -417 342 -62 126 -77 191 -76 344 0 153
15 221 75 345 78 160 242 293 420 340 93 24 252 26 351 4z"/>
<path d="M3718 8228 c-8 -7 -39 -67 -68 -133 -50 -113 -63 -143 -130 -290 -15
-33 -53 -118 -84 -190 -32 -71 -66 -148 -76 -170 -10 -22 -55 -123 -100 -225
-83 -187 -104 -234 -145 -325 -23 -49 -181 -405 -212 -475 -9 -19 -26 -57 -38
-85 -53 -115 -75 -166 -75 -170 0 -2 -15 -36 -34 -77 -18 -40 -43 -93 -54
-118 -22 -48 -73 -160 -80 -173 -2 -4 155 -6 349 -5 l353 3 53 130 c30 72 58
141 64 155 5 14 13 34 18 45 5 11 16 36 25 57 9 20 16 40 16 45 0 6 8 17 18
26 17 15 69 17 540 17 l522 0 14 -22 c7 -13 35 -75 61 -138 26 -63 58 -139 71
-168 13 -29 24 -59 24 -67 0 -7 4 -16 9 -19 4 -3 11 -19 14 -36 l7 -30 360 0
c198 0 360 1 360 3 0 2 -8 21 -19 43 -10 21 -26 57 -36 79 -10 22 -28 63 -40
90 -13 28 -33 73 -45 100 -33 72 -66 147 -116 257 -24 54 -44 99 -44 102 0 2
-15 37 -34 78 -18 40 -44 96 -56 123 -12 28 -38 83 -56 123 -19 41 -34 75 -34
77 0 2 -18 43 -40 90 -22 47 -40 88 -40 90 0 2 -13 32 -29 67 -16 35 -50 110
-76 168 -55 122 -77 171 -116 258 -16 34 -29 64 -29 67 0 2 -17 41 -39 87 -21
46 -67 146 -101 223 -34 77 -75 168 -91 203 -16 35 -29 68 -29 73 0 5 -9 18
-20 29 -19 19 -33 20 -348 20 -248 0 -332 -3 -344 -12z m362 -720 c14 -34 195
-478 210 -513 5 -11 15 -36 23 -55 9 -19 27 -63 42 -97 15 -34 24 -66 20 -72
-4 -8 -108 -11 -321 -11 -282 0 -315 2 -321 16 -3 9 -1 24 5 34 6 10 43 96 82
191 39 96 75 183 79 194 5 11 39 93 76 183 38 89 73 162 80 162 7 0 18 -15 25
-32z"/>
<path d="M5657 8233 c-4 -3 -7 -555 -7 -1225 l0 -1218 340 0 340 0 2 643 c2
448 6 642 14 642 6 0 50 -47 99 -105 49 -58 92 -107 95 -110 3 -3 66 -77 140
-165 119 -141 196 -232 434 -511 34 -39 75 -87 91 -106 17 -20 77 -93 135
-162 l105 -125 290 -1 290 0 4 1219 4 1218 -24 6 c-37 10 -642 8 -658 -2 -12
-8 -13 -108 -10 -648 4 -607 3 -638 -14 -638 -10 0 -34 21 -55 47 -20 25 -120
145 -222 266 -102 120 -262 311 -357 423 -94 112 -238 283 -320 379 l-148 175
-281 3 c-154 1 -283 -1 -287 -5z"/>
<path d="M8485 8230 c-4 -6 -5 -557 -4 -1225 l3 -1215 668 0 c663 0 719 2 888
36 457 92 790 363 931 755 63 177 84 426 54 629 -57 384 -255 667 -596 849
-90 48 -263 112 -359 132 -193 40 -220 42 -906 46 -487 3 -674 1 -679 -7z
m1349 -564 c332 -86 505 -313 506 -664 0 -128 -15 -208 -58 -305 -52 -117
-162 -231 -277 -288 -153 -75 -184 -80 -512 -86 -226 -4 -296 -3 -308 7 -13
11 -15 97 -15 674 0 516 3 665 13 675 18 19 569 9 651 -13z"/>
<path d="M11392 8234 c-11 -5 -13 -228 -11 -1225 l2 -1219 343 0 344 0 0 320
c0 305 1 320 19 330 22 11 360 14 377 2 12 -8 94 -119 94 -127 0 -3 17 -29 38
-58 36 -49 118 -167 257 -372 l61 -90 367 -5 c202 -3 367 -1 367 3 0 4 -5 13
-10 20 -12 14 -129 182 -245 352 -44 65 -119 174 -167 242 -89 125 -102 158
-70 170 40 14 159 99 215 151 84 80 113 123 187 272 19 38 40 134 51 231 27
230 -38 476 -166 633 -161 198 -361 301 -685 353 -76 12 -224 16 -725 19 -346
2 -636 1 -643 -2z m1260 -558 c172 -47 263 -167 263 -346 0 -93 -19 -157 -65
-218 -37 -49 -119 -105 -180 -123 -94 -27 -538 -41 -581 -18 -20 10 -21 18
-18 356 3 289 6 348 18 361 21 21 479 12 563 -12z"/>
<path d="M2630 4988 c-1 -120 3 -2373 4 -2396 l1 -33 312 -2 c203 -1 313 2
313 8 0 6 2 105 4 220 2 116 5 391 5 613 1 368 2 403 17 400 9 -2 24 -17 33
-33 9 -17 63 -106 121 -198 58 -93 110 -176 115 -185 6 -10 19 -31 31 -47 11
-17 24 -37 28 -45 3 -8 73 -121 154 -250 l149 -235 155 -3 156 -2 133 217 c74
119 137 224 142 232 4 9 21 36 37 61 16 25 34 54 40 65 5 11 50 85 100 165 49
80 109 178 131 218 56 99 74 96 75 -13 6 -928 10 -1178 16 -1181 6 -4 498 -7
608 -4 7 0 9 408 8 1218 l-3 1217 -280 2 c-154 2 -285 0 -290 -5 -6 -4 -150
-239 -320 -522 -509 -848 -529 -880 -542 -880 -7 0 -19 13 -27 28 -8 16 -160
265 -338 553 -178 288 -336 544 -351 569 -34 56 -43 70 -90 144 -21 32 -45 72
-53 87 l-15 29 -289 0 c-225 0 -290 -3 -290 -12z"/>
<path d="M5973 4985 c-3 -9 -2 -559 3 -1223 7 -955 12 -1207 22 -1206 6 1 451
2 987 3 l974 1 3 246 c2 169 0 249 -8 255 -6 5 -287 10 -650 11 l-639 3 0 230
0 230 552 3 552 2 3 243 c2 133 2 245 0 250 -2 4 -246 7 -542 7 -296 0 -545 3
-554 6 -14 5 -16 33 -16 209 0 160 3 205 14 214 10 8 180 11 626 11 337 -1
614 1 616 3 3 2 5 118 7 258 l2 254 -973 3 c-870 2 -973 0 -979 -13z"/>
<path d="M8323 4984 c-7 -19 6 -2414 13 -2426 7 -12 1123 -10 1288 2 140 10
192 18 316 47 117 27 145 37 284 102 135 63 221 124 326 230 127 128 186 217
247 375 59 153 76 256 77 461 1 194 -11 279 -60 425 -128 376 -449 650 -887
755 -169 40 -258 45 -940 45 -597 0 -658 -1 -664 -16z m1239 -535 c288 -31
475 -165 578 -414 51 -123 53 -377 5 -510 -72 -197 -213 -334 -405 -393 -117
-37 -194 -43 -465 -40 l-260 3 -3 667 c-2 596 0 668 14 682 13 14 47 16 224
16 115 0 256 -5 312 -11z"/>
<path d="M11218 4990 c-1 -5 -1 -555 2 -1221 l5 -1211 334 1 c184 0 338 4 342
8 4 5 9 553 11 1218 l3 1210 -347 3 c-227 1 -347 -1 -350 -8z"/>
<path d="M13170 4975 c-6 -15 -22 -52 -36 -83 -51 -111 -64 -139 -149 -332
-48 -107 -95 -213 -105 -235 -10 -22 -57 -128 -105 -235 -89 -200 -107 -239
-156 -348 -16 -34 -29 -64 -29 -67 0 -2 -18 -43 -40 -90 -22 -47 -40 -88 -40
-90 0 -2 -18 -42 -40 -89 -22 -47 -40 -87 -40 -90 0 -2 -15 -37 -34 -78 -64
-139 -86 -189 -86 -192 0 -2 -18 -44 -41 -93 -23 -48 -47 -101 -54 -118 -47
-109 -94 -213 -112 -247 -8 -16 -12 -28 -9 -28 3 0 157 0 341 0 184 0 342 0
350 0 8 0 15 7 15 16 0 9 6 28 14 42 7 15 18 38 24 52 27 65 41 97 52 125 6
17 31 75 54 130 l42 100 538 0 c469 0 540 -2 547 -15 4 -8 33 -78 64 -155 31
-77 65 -159 75 -181 11 -23 22 -53 26 -67 3 -15 12 -31 19 -37 13 -11 702 -17
712 -6 3 2 -2 17 -11 33 -8 15 -29 60 -46 98 -18 39 -40 89 -51 113 -10 23
-28 62 -39 87 -11 25 -29 65 -40 90 -11 25 -30 66 -41 93 -20 44 -32 70 -103
225 -14 32 -26 59 -26 62 0 2 -18 43 -40 90 -22 47 -40 88 -40 90 0 2 -15 36
-34 77 -18 40 -44 96 -56 123 -12 28 -38 83 -56 123 -19 41 -34 75 -34 77 0 2
-18 43 -40 90 -22 47 -40 88 -40 91 0 2 -14 34 -31 71 -68 148 -83 180 -134
297 -48 110 -116 261 -182 406 -14 30 -29 65 -34 78 l-9 22 -350 0 -350 0 -10
-25z m368 -678 c6 -6 20 -37 31 -67 12 -30 26 -64 30 -75 5 -11 42 -99 81
-195 39 -96 76 -186 82 -200 6 -14 14 -34 19 -45 20 -51 43 -103 57 -132 13
-26 14 -34 3 -47 -12 -14 -50 -16 -319 -14 -259 3 -306 5 -314 18 -9 14 17 88
52 152 6 10 10 22 10 28 0 5 12 35 26 67 14 32 30 67 34 78 5 11 15 36 23 55
8 19 40 98 72 175 31 77 60 149 65 160 4 11 11 28 14 38 6 20 19 22 34 4z"/>
</g>
</svg>
